<svg xmlns="http://www.w3.org/2000/svg" viewBox="0 0 64 64" width="64" height="64">
  <!-- Cyan background fold -->
  <path fill="#22D3EE" d="M12 18a4 4 0 0 1 4-4h28a4 4 0 0 1 4 4v28a4 4 0 0 1-4 4H16a4 4 0 0 1-4-4V18z" opacity="0.65"/>
  <!-- Dark Blue main card -->
  <path fill="#1A73E8" d="M18 22a4 4 0 0 1 4-4h28a4 4 0 0 1 4 4v28a4 4 0 0 1-4 4H22a4 4 0 0 1-4-4V22z"/>
  <!-- Ledger Graph lines inside -->
  <rect x="26" y="38" width="6" height="10" rx="1" fill="#FFFFFF" opacity="0.8"/>
  <rect x="34" y="30" width="6" height="18" rx="1" fill="#FFFFFF"/>
  <rect x="42" y="24" width="6" height="24" rx="1" fill="#FFFFFF" opacity="0.9"/>
</svg>