<svg xmlns="http://www.w3.org/2000/svg" viewBox="0 0 64 64" width="64" height="64">
  <g transform="translate(1.7, 11.8)">
    <path fill="#006EB9" d="M39.6,40.4c-4.8,0-9.3-1.9-12.8-5.2l-10-10C15.6,24,15,22.5,15,20.8c0-1.6,0.7-3.2,1.8-4.3
      c2.4-2.4,6.3-2.4,8.7,0l9.2,9.2c1.1,1.1,2.8,1.1,3.9,0c0.5-0.5,0.8-1.2,0.8-2c0-0.7-0.3-1.4-0.8-2l-10-10C25.8,9,22,7.5,18.1,7.5
      c-4,0-7.7,1.6-10.5,4.4c-2.8,2.9-4.3,6.6-4.2,10.6c0.2,8,6.8,14.5,14.8,14.5c1.4,0,2.8-0.2,4.2-0.6c0.9-0.3,1.8,0.2,2.1,1.1
      c0.3,0.9-0.2,1.8-1.1,2.1c-1.7,0.5-3.4,0.7-5.2,0.7c-9.8,0-18-8-18.2-17.8c-0.1-4.9,1.7-9.6,5.2-13.1c3.4-3.5,8-5.4,12.9-5.4
      c4.8,0,9.4,1.9,12.8,5.2l10,10c1.2,1.2,1.8,2.7,1.8,4.4c0,1.6-0.7,3.2-1.8,4.4c-2.4,2.4-6.3,2.4-8.7,0l-9.2-9.2
      c-1.1-1.1-2.8-1.1-3.9,0c-0.5,0.5-0.8,1.2-0.8,2c0,0.7,0.3,1.4,0.8,2l10,10c2.8,2.7,6.5,4.3,10.4,4.3c8.1,0,14.8-6.6,14.8-14.8
      c0-3.9-1.5-7.7-4.3-10.5s-6.5-4.3-10.4-4.3c-1.3,0-2.5,0.2-3.7,0.5c-0.2,0-0.4,0.1-0.5,0.1c-0.9,0.3-1.8-0.2-2.1-1.1
      c-0.3-0.9,0.2-1.8,1.1-2.1c0.2-0.1,0.4-0.1,0.6-0.2c1.5-0.4,3-0.6,4.6-0.6c4.8,0,9.4,1.9,12.8,5.3c3.4,3.4,5.3,8,5.3,12.8
      C57.7,32.3,49.5,40.4,39.6,40.4L39.6,40.4z"/>
  </g>
</svg>
